# Blender 4.1.1
# www.blender.org
o Cylinder
v -0.000000 -2.310492 -1.548369
v -0.000000 -2.210492 -1.650328
v -0.000000 -2.297095 -1.599348
v -0.000000 -2.260492 -1.636668
v -0.000000 -0.013664 -1.548369
v -0.000000 -0.113664 -1.650328
v -0.000000 -0.027061 -1.599348
v -0.000000 -0.063664 -1.636668
v 0.592535 -2.310492 -1.430506
v 0.631553 -2.210492 -1.524704
v 0.612044 -2.297095 -1.477605
v 0.626326 -2.260492 -1.512084
v 0.592535 -0.013664 -1.430506
v 0.631553 -0.113664 -1.524704
v 0.612044 -0.027061 -1.477605
v 0.626326 -0.063664 -1.512084
v 1.094862 -2.310492 -1.094862
v 1.166958 -2.210492 -1.166958
v 1.130910 -2.297095 -1.130910
v 1.157299 -2.260492 -1.157299
v 1.094862 -0.013664 -1.094862
v 1.166958 -0.113664 -1.166958
v 1.130910 -0.027061 -1.130910
v 1.157299 -0.063664 -1.157299
v 1.430506 -2.310492 -0.592535
v 1.524704 -2.210492 -0.631553
v 1.477605 -2.297095 -0.612044
v 1.512084 -2.260492 -0.626326
v 1.430506 -0.013664 -0.592535
v 1.524704 -0.113664 -0.631553
v 1.477605 -0.027061 -0.612044
v 1.512084 -0.063664 -0.626326
v 1.548369 -2.310492 0.000000
v 1.650328 -2.210492 0.000000
v 1.599348 -2.297095 0.000000
v 1.636668 -2.260492 0.000000
v 1.548369 -0.013664 0.000000
v 1.650328 -0.113664 0.000000
v 1.599348 -0.027061 0.000000
v 1.636668 -0.063664 0.000000
v 1.430506 -2.310492 0.592535
v 1.524704 -2.210492 0.631553
v 1.477605 -2.297095 0.612044
v 1.512084 -2.260492 0.626326
v 1.430506 -0.013664 0.592535
v 1.524704 -0.113664 0.631553
v 1.477605 -0.027061 0.612044
v 1.512084 -0.063664 0.626326
v 1.094862 -2.310492 1.094862
v 1.166958 -2.210492 1.166958
v 1.130910 -2.297095 1.130910
v 1.157299 -2.260492 1.157299
v 1.094862 -0.013664 1.094862
v 1.166958 -0.113664 1.166958
v 1.130910 -0.027061 1.130910
v 1.157299 -0.063664 1.157299
v 0.592535 -2.310492 1.430506
v 0.631553 -2.210492 1.524704
v 0.612044 -2.297095 1.477605
v 0.626326 -2.260492 1.512084
v 0.592535 -0.013664 1.430506
v 0.631553 -0.113664 1.524704
v 0.612044 -0.027061 1.477605
v 0.626326 -0.063664 1.512084
v -0.000000 -2.310492 1.548369
v -0.000000 -2.210492 1.650328
v -0.000000 -2.297095 1.599348
v -0.000000 -2.260492 1.636668
v -0.000000 -0.013664 1.548369
v -0.000000 -0.113664 1.650328
v -0.000000 -0.027061 1.599348
v -0.000000 -0.063664 1.636668
v -0.592535 -2.310492 1.430506
v -0.631553 -2.210492 1.524704
v -0.612044 -2.297095 1.477605
v -0.626326 -2.260492 1.512084
v -0.592535 -0.013664 1.430506
v -0.631553 -0.113664 1.524704
v -0.612044 -0.027061 1.477605
v -0.626326 -0.063664 1.512084
v -1.094862 -2.310492 1.094862
v -1.166958 -2.210492 1.166958
v -1.130910 -2.297095 1.130910
v -1.157299 -2.260492 1.157299
v -1.094862 -0.013664 1.094862
v -1.166958 -0.113664 1.166958
v -1.130910 -0.027061 1.130910
v -1.157299 -0.063664 1.157299
v -1.430506 -2.310492 0.592535
v -1.524704 -2.210492 0.631553
v -1.477605 -2.297095 0.612044
v -1.512084 -2.260492 0.626326
v -1.430506 -0.013664 0.592535
v -1.524704 -0.113664 0.631553
v -1.477605 -0.027061 0.612044
v -1.512084 -0.063664 0.626326
v -1.548369 -2.310492 0.000000
v -1.650328 -2.210492 0.000000
v -1.599348 -2.297095 0.000000
v -1.636668 -2.260492 0.000000
v -1.548369 -0.013664 0.000000
v -1.650328 -0.113664 0.000000
v -1.599348 -0.027061 0.000000
v -1.636668 -0.063664 0.000000
v -1.430506 -2.310492 -0.592535
v -1.524704 -2.210492 -0.631553
v -1.477605 -2.297095 -0.612044
v -1.512084 -2.260492 -0.626326
v -1.430506 -0.013664 -0.592535
v -1.524704 -0.113664 -0.631553
v -1.477605 -0.027061 -0.612044
v -1.512084 -0.063664 -0.626326
v -1.094862 -2.310492 -1.094862
v -1.166958 -2.210492 -1.166958
v -1.130910 -2.297095 -1.130910
v -1.157299 -2.260492 -1.157299
v -1.094862 -0.013664 -1.094862
v -1.166958 -0.113664 -1.166958
v -1.130910 -0.027061 -1.130910
v -1.157299 -0.063664 -1.157299
v -0.592535 -2.310492 -1.430506
v -0.631553 -2.210492 -1.524704
v -0.612044 -2.297095 -1.477605
v -0.626326 -2.260492 -1.512084
v -0.592535 -0.013664 -1.430506
v -0.631553 -0.113664 -1.524704
v -0.612044 -0.027061 -1.477605
v -0.626326 -0.063664 -1.512084
vn -0.1951 -0.0000 -0.9808
vn 0.8315 -0.0000 -0.5556
vn 0.9808 -0.0000 -0.1951
vn 0.9808 -0.0000 0.1951
vn 0.8315 -0.0000 0.5556
vn 0.5556 -0.0000 0.8315
vn 0.1951 -0.0000 0.9808
vn -0.1951 -0.0000 0.9808
vn -0.5556 -0.0000 0.8315
vn -0.8315 -0.0000 0.5556
vn -0.9808 -0.0000 0.1951
vn -0.9808 -0.0000 -0.1951
vn -0.8315 -0.0000 -0.5556
vn -0.5556 -0.0000 -0.8315
vn 0.5556 -0.0000 -0.8315
vn -0.0000 1.0000 -0.0000
vn 0.1951 -0.0000 -0.9808
vn 0.1884 -0.2588 -0.9474
vn 0.1379 -0.7071 -0.6935
vn 0.0505 -0.9659 -0.2538
vn 0.1884 0.2588 -0.9474
vn 0.1379 0.7071 -0.6935
vn 0.0505 0.9659 -0.2538
vn 0.5366 -0.2588 -0.8031
vn 0.3928 -0.7071 -0.5879
vn 0.1438 -0.9659 -0.2152
vn 0.5366 0.2588 -0.8031
vn 0.3928 0.7071 -0.5879
vn 0.1438 0.9659 -0.2152
vn 0.8031 -0.2588 -0.5366
vn 0.5879 -0.7071 -0.3928
vn 0.2152 -0.9659 -0.1438
vn 0.8031 0.2588 -0.5366
vn 0.5879 0.7071 -0.3928
vn 0.2152 0.9659 -0.1438
vn 0.9474 -0.2588 -0.1884
vn 0.6935 -0.7071 -0.1379
vn 0.2538 -0.9659 -0.0505
vn 0.9474 0.2588 -0.1884
vn 0.6935 0.7071 -0.1379
vn 0.2538 0.9659 -0.0505
vn 0.9474 -0.2588 0.1884
vn 0.6935 -0.7071 0.1379
vn 0.2538 -0.9659 0.0505
vn 0.9474 0.2588 0.1884
vn 0.6935 0.7071 0.1379
vn 0.2538 0.9659 0.0505
vn 0.8031 -0.2588 0.5366
vn 0.5879 -0.7071 0.3928
vn 0.2152 -0.9659 0.1438
vn 0.8031 0.2588 0.5366
vn 0.5879 0.7071 0.3928
vn 0.2152 0.9659 0.1438
vn 0.5366 -0.2588 0.8031
vn 0.3928 -0.7071 0.5879
vn 0.1438 -0.9659 0.2152
vn 0.5366 0.2588 0.8031
vn 0.3928 0.7071 0.5879
vn 0.1438 0.9659 0.2152
vn 0.1884 -0.2588 0.9474
vn 0.1379 -0.7071 0.6935
vn 0.0505 -0.9659 0.2538
vn 0.1884 0.2588 0.9474
vn 0.1379 0.7071 0.6935
vn 0.0505 0.9659 0.2538
vn -0.1884 -0.2588 0.9474
vn -0.1379 -0.7071 0.6935
vn -0.0505 -0.9659 0.2538
vn -0.1884 0.2588 0.9474
vn -0.1379 0.7071 0.6935
vn -0.0505 0.9659 0.2538
vn -0.5366 -0.2588 0.8031
vn -0.3928 -0.7071 0.5879
vn -0.1438 -0.9659 0.2152
vn -0.5366 0.2588 0.8031
vn -0.3928 0.7071 0.5879
vn -0.1438 0.9659 0.2152
vn -0.8031 -0.2588 0.5366
vn -0.5879 -0.7071 0.3928
vn -0.2152 -0.9659 0.1438
vn -0.8031 0.2588 0.5366
vn -0.5879 0.7071 0.3928
vn -0.2152 0.9659 0.1438
vn -0.9474 -0.2588 0.1884
vn -0.6935 -0.7071 0.1379
vn -0.2538 -0.9659 0.0505
vn -0.9474 0.2588 0.1884
vn -0.6935 0.7071 0.1379
vn -0.2538 0.9659 0.0505
vn -0.9474 -0.2588 -0.1884
vn -0.6935 -0.7071 -0.1379
vn -0.2538 -0.9659 -0.0505
vn -0.9474 0.2588 -0.1884
vn -0.6935 0.7071 -0.1379
vn -0.2538 0.9659 -0.0505
vn -0.8031 -0.2588 -0.5366
vn -0.5879 -0.7071 -0.3928
vn -0.2152 -0.9659 -0.1438
vn -0.8031 0.2588 -0.5366
vn -0.5879 0.7071 -0.3928
vn -0.2152 0.9659 -0.1438
vn -0.5366 -0.2588 -0.8031
vn -0.3928 -0.7071 -0.5879
vn -0.1438 -0.9659 -0.2152
vn -0.5366 0.2588 -0.8031
vn -0.3928 0.7071 -0.5879
vn -0.1438 0.9659 -0.2152
vn -0.1884 -0.2588 -0.9474
vn -0.1379 -0.7071 -0.6935
vn -0.0505 -0.9659 -0.2538
vn -0.1884 0.2588 -0.9474
vn -0.1379 0.7071 -0.6935
vn -0.0505 0.9659 -0.2538
vn -0.0000 -1.0000 -0.0000
vt 0.062500 0.521769
vt 0.062500 0.978231
vt 0.000000 0.978231
vt 0.000000 0.521769
vt 0.875000 0.521769
vt 0.875000 0.978231
vt 0.812500 0.978231
vt 0.812500 0.521769
vt 0.750000 0.978231
vt 0.750000 0.521769
vt 0.687500 0.978231
vt 0.687500 0.521769
vt 0.625000 0.978231
vt 0.625000 0.521769
vt 0.562500 0.978231
vt 0.562500 0.521769
vt 0.500000 0.978231
vt 0.500000 0.521769
vt 0.437500 0.978231
vt 0.437500 0.521769
vt 0.437500 0.521769
vt 0.437500 0.978231
vt 0.375000 0.978231
vt 0.375000 0.521769
vt 0.312500 0.978231
vt 0.312500 0.521769
vt 0.250000 0.978231
vt 0.250000 0.521769
vt 0.187500 0.978231
vt 0.187500 0.521769
vt 0.125000 0.978231
vt 0.125000 0.521769
vt 0.937500 0.521769
vt 0.937500 0.978231
vt 0.875000 0.978231
vt 0.875000 0.521769
vt 0.336170 0.458032
vt 0.250000 0.475173
vt 0.163830 0.458032
vt 0.090779 0.409221
vt 0.041968 0.336170
vt 0.024827 0.250000
vt 0.041968 0.163830
vt 0.090779 0.090779
vt 0.163830 0.041968
vt 0.250000 0.024827
vt 0.336170 0.041968
vt 0.409221 0.090779
vt 0.458032 0.163830
vt 0.475173 0.250000
vt 0.458032 0.336170
vt 0.409221 0.409221
vt 1.000000 0.521769
vt 1.000000 0.978231
vt 0.937500 0.978231
vt 0.937500 0.521769
vt 0.937759 0.500000
vt 0.999741 0.500000
vt 0.750380 0.489924
vt 0.841464 0.471807
vt 0.839007 0.464882
vt 0.750000 0.482586
vt 0.836170 0.458032
vt 0.750000 0.475173
vt 0.999741 1.000000
vt 0.937759 1.000000
vt 0.341464 0.471807
vt 0.250380 0.489924
vt 0.250000 0.482586
vt 0.339007 0.464882
vt 0.875259 0.500000
vt 0.937241 0.500000
vt 0.842166 0.471516
vt 0.919383 0.419921
vt 0.914463 0.414463
vt 0.909221 0.409221
vt 0.937241 1.000000
vt 0.875259 1.000000
vt 0.419383 0.419921
vt 0.342166 0.471516
vt 0.414463 0.414463
vt 0.812759 0.500000
vt 0.874741 0.500000
vt 0.919921 0.419383
vt 0.971516 0.342166
vt 0.964882 0.339007
vt 0.958032 0.336170
vt 0.874741 1.000000
vt 0.812759 1.000000
vt 0.471516 0.342166
vt 0.419921 0.419383
vt 0.464882 0.339007
vt 0.750259 0.500000
vt 0.812241 0.500000
vt 0.971807 0.341464
vt 0.989924 0.250380
vt 0.982586 0.250000
vt 0.975173 0.250000
vt 0.812241 1.000000
vt 0.750259 1.000000
vt 0.489924 0.250380
vt 0.471807 0.341464
vt 0.482586 0.250000
vt 0.687759 0.500000
vt 0.749741 0.500000
vt 0.989924 0.249620
vt 0.971807 0.158536
vt 0.964882 0.160993
vt 0.958032 0.163830
vt 0.749741 1.000000
vt 0.687759 1.000000
vt 0.471807 0.158536
vt 0.489924 0.249620
vt 0.464882 0.160993
vt 0.625259 0.500000
vt 0.687241 0.500000
vt 0.971516 0.157834
vt 0.919921 0.080617
vt 0.914463 0.085537
vt 0.909221 0.090779
vt 0.687241 1.000000
vt 0.625259 1.000000
vt 0.419921 0.080617
vt 0.471516 0.157834
vt 0.414463 0.085537
vt 0.562759 0.500000
vt 0.624741 0.500000
vt 0.919383 0.080079
vt 0.842166 0.028484
vt 0.839007 0.035118
vt 0.836170 0.041968
vt 0.624741 1.000000
vt 0.562759 1.000000
vt 0.342166 0.028484
vt 0.419383 0.080079
vt 0.339007 0.035118
vt 0.500259 0.500000
vt 0.562241 0.500000
vt 0.841464 0.028193
vt 0.750380 0.010076
vt 0.750000 0.017414
vt 0.750000 0.024827
vt 0.562241 1.000000
vt 0.500259 1.000000
vt 0.250380 0.010076
vt 0.341464 0.028193
vt 0.250000 0.017414
vt 0.437759 0.500000
vt 0.499741 0.500000
vt 0.749620 0.010076
vt 0.658536 0.028193
vt 0.660993 0.035118
vt 0.663830 0.041968
vt 0.499741 1.000000
vt 0.437759 1.000000
vt 0.158536 0.028193
vt 0.249620 0.010076
vt 0.160993 0.035118
vt 0.375259 0.500000
vt 0.437241 0.500000
vt 0.657834 0.028484
vt 0.580617 0.080079
vt 0.585537 0.085537
vt 0.590779 0.090779
vt 0.437241 1.000000
vt 0.375259 1.000000
vt 0.080617 0.080079
vt 0.157834 0.028484
vt 0.085537 0.085537
vt 0.312759 0.500000
vt 0.374741 0.500000
vt 0.580079 0.080617
vt 0.528484 0.157834
vt 0.535118 0.160993
vt 0.541968 0.163830
vt 0.374741 1.000000
vt 0.312759 1.000000
vt 0.028484 0.157834
vt 0.080079 0.080617
vt 0.035118 0.160993
vt 0.250259 0.500000
vt 0.312241 0.500000
vt 0.528193 0.158536
vt 0.510076 0.249620
vt 0.517414 0.250000
vt 0.524827 0.250000
vt 0.312241 1.000000
vt 0.250259 1.000000
vt 0.010076 0.249620
vt 0.028193 0.158536
vt 0.017414 0.250000
vt 0.187759 0.500000
vt 0.249741 0.500000
vt 0.510076 0.250380
vt 0.528193 0.341464
vt 0.535118 0.339007
vt 0.541968 0.336170
vt 0.249741 1.000000
vt 0.187759 1.000000
vt 0.028193 0.341464
vt 0.010076 0.250380
vt 0.035118 0.339007
vt 0.125259 0.500000
vt 0.187241 0.500000
vt 0.528484 0.342166
vt 0.580079 0.419383
vt 0.585537 0.414463
vt 0.590779 0.409221
vt 0.187241 1.000000
vt 0.125259 1.000000
vt 0.080079 0.419383
vt 0.028484 0.342166
vt 0.085537 0.414463
vt 0.062759 0.500000
vt 0.124741 0.500000
vt 0.580617 0.419921
vt 0.657834 0.471516
vt 0.660993 0.464882
vt 0.663830 0.458032
vt 0.124741 1.000000
vt 0.062759 1.000000
vt 0.157834 0.471516
vt 0.080617 0.419921
vt 0.160993 0.464882
vt 0.000259 0.500000
vt 0.062241 0.500000
vt 0.658536 0.471807
vt 0.749620 0.489924
vt 0.062241 1.000000
vt 0.000259 1.000000
vt 0.249620 0.489924
vt 0.158536 0.471807
s 0
f 122/1/1 126/2/1 6/3/1 2/4/1
f 18/5/2 22/6/2 30/7/2 26/8/2
f 26/8/3 30/7/3 38/9/3 34/10/3
f 34/10/4 38/9/4 46/11/4 42/12/4
f 42/12/5 46/11/5 54/13/5 50/14/5
f 50/14/6 54/13/6 62/15/6 58/16/6
f 58/16/7 62/15/7 70/17/7 66/18/7
f 66/18/8 70/17/8 78/19/8 74/20/8
f 74/21/9 78/22/9 86/23/9 82/24/9
f 82/24/10 86/23/10 94/25/10 90/26/10
f 90/26/11 94/25/11 102/27/11 98/28/11
f 98/28/12 102/27/12 110/29/12 106/30/12
f 106/30/13 110/29/13 118/31/13 114/32/13
f 114/32/14 118/31/14 126/2/14 122/1/14
f 10/33/15 14/34/15 22/35/15 18/36/15
f 13/37/16 5/38/16 125/39/16 117/40/16 109/41/16 101/42/16 93/43/16 85/44/16 77/45/16 69/46/16 61/47/16 53/48/16 45/49/16 37/50/16 29/51/16 21/52/16
f 2/53/17 6/54/17 14/55/17 10/56/17
f 2/53/18 10/56/18 12/57/18 4/58/18
f 4/59/19 12/60/19 11/61/19 3/62/19
f 3/62/20 11/61/20 9/63/20 1/64/20
f 14/55/21 6/54/21 8/65/21 16/66/21
f 16/67/22 8/68/22 7/69/22 15/70/22
f 15/70/23 7/69/23 5/38/23 13/37/23
f 10/33/24 18/36/24 20/71/24 12/72/24
f 12/73/25 20/74/25 19/75/25 11/61/25
f 11/61/26 19/75/26 17/76/26 9/63/26
f 22/35/27 14/34/27 16/77/27 24/78/27
f 24/79/28 16/80/28 15/70/28 23/81/28
f 23/81/29 15/70/29 13/37/29 21/52/29
f 18/5/30 26/8/30 28/82/30 20/83/30
f 20/84/31 28/85/31 27/86/31 19/75/31
f 19/75/32 27/86/32 25/87/32 17/76/32
f 30/7/33 22/6/33 24/88/33 32/89/33
f 32/90/34 24/91/34 23/81/34 31/92/34
f 31/92/35 23/81/35 21/52/35 29/51/35
f 26/8/36 34/10/36 36/93/36 28/94/36
f 28/95/37 36/96/37 35/97/37 27/86/37
f 27/86/38 35/97/38 33/98/38 25/87/38
f 38/9/39 30/7/39 32/99/39 40/100/39
f 40/101/40 32/102/40 31/92/40 39/103/40
f 39/103/41 31/92/41 29/51/41 37/50/41
f 34/10/42 42/12/42 44/104/42 36/105/42
f 36/106/43 44/107/43 43/108/43 35/97/43
f 35/97/44 43/108/44 41/109/44 33/98/44
f 46/11/45 38/9/45 40/110/45 48/111/45
f 48/112/46 40/113/46 39/103/46 47/114/46
f 47/114/47 39/103/47 37/50/47 45/49/47
f 42/12/48 50/14/48 52/115/48 44/116/48
f 44/117/49 52/118/49 51/119/49 43/108/49
f 43/108/50 51/119/50 49/120/50 41/109/50
f 54/13/51 46/11/51 48/121/51 56/122/51
f 56/123/52 48/124/52 47/114/52 55/125/52
f 55/125/53 47/114/53 45/49/53 53/48/53
f 50/14/54 58/16/54 60/126/54 52/127/54
f 52/128/55 60/129/55 59/130/55 51/119/55
f 51/119/56 59/130/56 57/131/56 49/120/56
f 62/15/57 54/13/57 56/132/57 64/133/57
f 64/134/58 56/135/58 55/125/58 63/136/58
f 63/136/59 55/125/59 53/48/59 61/47/59
f 58/16/60 66/18/60 68/137/60 60/138/60
f 60/139/61 68/140/61 67/141/61 59/130/61
f 59/130/62 67/141/62 65/142/62 57/131/62
f 70/17/63 62/15/63 64/143/63 72/144/63
f 72/145/64 64/146/64 63/136/64 71/147/64
f 71/147/65 63/136/65 61/47/65 69/46/65
f 66/18/66 74/20/66 76/148/66 68/149/66
f 68/150/67 76/151/67 75/152/67 67/141/67
f 67/141/68 75/152/68 73/153/68 65/142/68
f 78/19/69 70/17/69 72/154/69 80/155/69
f 80/156/70 72/157/70 71/147/70 79/158/70
f 79/158/71 71/147/71 69/46/71 77/45/71
f 74/21/72 82/24/72 84/159/72 76/160/72
f 76/161/73 84/162/73 83/163/73 75/152/73
f 75/152/74 83/163/74 81/164/74 73/153/74
f 86/23/75 78/22/75 80/165/75 88/166/75
f 88/167/76 80/168/76 79/158/76 87/169/76
f 87/169/77 79/158/77 77/45/77 85/44/77
f 82/24/78 90/26/78 92/170/78 84/171/78
f 84/172/79 92/173/79 91/174/79 83/163/79
f 83/163/80 91/174/80 89/175/80 81/164/80
f 94/25/81 86/23/81 88/176/81 96/177/81
f 96/178/82 88/179/82 87/169/82 95/180/82
f 95/180/83 87/169/83 85/44/83 93/43/83
f 90/26/84 98/28/84 100/181/84 92/182/84
f 92/183/85 100/184/85 99/185/85 91/174/85
f 91/174/86 99/185/86 97/186/86 89/175/86
f 102/27/87 94/25/87 96/187/87 104/188/87
f 104/189/88 96/190/88 95/180/88 103/191/88
f 103/191/89 95/180/89 93/43/89 101/42/89
f 98/28/90 106/30/90 108/192/90 100/193/90
f 100/194/91 108/195/91 107/196/91 99/185/91
f 99/185/92 107/196/92 105/197/92 97/186/92
f 110/29/93 102/27/93 104/198/93 112/199/93
f 112/200/94 104/201/94 103/191/94 111/202/94
f 111/202/95 103/191/95 101/42/95 109/41/95
f 106/30/96 114/32/96 116/203/96 108/204/96
f 108/205/97 116/206/97 115/207/97 107/196/97
f 107/196/98 115/207/98 113/208/98 105/197/98
f 118/31/99 110/29/99 112/209/99 120/210/99
f 120/211/100 112/212/100 111/202/100 119/213/100
f 119/213/101 111/202/101 109/41/101 117/40/101
f 114/32/102 122/1/102 124/214/102 116/215/102
f 116/216/103 124/217/103 123/218/103 115/207/103
f 115/207/104 123/218/104 121/219/104 113/208/104
f 126/2/105 118/31/105 120/220/105 128/221/105
f 128/222/106 120/223/106 119/213/106 127/224/106
f 127/224/107 119/213/107 117/40/107 125/39/107
f 122/1/108 2/4/108 4/225/108 124/226/108
f 124/227/109 4/228/109 3/62/109 123/218/109
f 123/218/110 3/62/110 1/64/110 121/219/110
f 6/3/111 126/2/111 128/229/111 8/230/111
f 8/231/112 128/232/112 127/224/112 7/69/112
f 7/69/113 127/224/113 125/39/113 5/38/113
f 1/64/114 9/63/114 17/76/114 25/87/114 33/98/114 41/109/114 49/120/114 57/131/114 65/142/114 73/153/114 81/164/114 89/175/114 97/186/114 105/197/114 113/208/114 121/219/114
